<svg width="487" height="102" viewBox="0 0 487 102" fill="none" xmlns="http://www.w3.org/2000/svg">
<path d="M88 1L123 101" stroke="white" stroke-width="5"/>
<path d="M63.6704 40.625H48.7386C48.4659 38.6932 47.9091 36.9773 47.0682 35.4773C46.2272 33.9545 45.1477 32.6591 43.8295 31.5909C42.5113 30.5227 40.9886 29.7045 39.2613 29.1364C37.5568 28.5682 35.7045 28.2841 33.7045 28.2841C30.0909 28.2841 26.9432 29.1818 24.2613 30.9773C21.5795 32.75 19.5 35.3409 18.0227 38.75C16.5454 42.1364 15.8068 46.25 15.8068 51.0909C15.8068 56.0682 16.5454 60.25 18.0227 63.6364C19.5227 67.0227 21.6136 69.5795 24.2954 71.3068C26.9772 73.0341 30.0795 73.8977 33.6022 73.8977C35.5795 73.8977 37.4091 73.6364 39.0909 73.1136C40.7954 72.5909 42.3068 71.8295 43.625 70.8295C44.9432 69.8068 46.0341 68.5682 46.8977 67.1136C47.7841 65.6591 48.3977 64 48.7386 62.1364L63.6704 62.2045C63.2841 65.4091 62.3182 68.5 60.7727 71.4773C59.25 74.4318 57.1932 77.0795 54.6022 79.4205C52.0341 81.7386 48.9659 83.5795 45.3977 84.9432C41.8522 86.2841 37.8409 86.9545 33.3636 86.9545C27.1363 86.9545 21.5682 85.5455 16.6591 82.7273C11.7727 79.9091 7.90906 75.8295 5.06815 70.4886C2.24997 65.1477 0.840881 58.6818 0.840881 51.0909C0.840881 43.4773 2.2727 37 5.13634 31.6591C7.99997 26.3182 11.8863 22.25 16.7954 19.4545C21.7045 16.6364 27.2272 15.2273 33.3636 15.2273C37.4091 15.2273 41.1591 15.7955 44.6136 16.9318C48.0909 18.0682 51.1704 19.7273 53.8522 21.9091C56.5341 24.0682 58.7159 26.7159 60.3977 29.8523C62.1022 32.9886 63.1932 36.5795 63.6704 40.625Z" fill="white"/>
<path d="M138.415 51.0909C138.415 58.7045 136.972 65.1818 134.085 70.5227C131.222 75.8636 127.312 79.9432 122.358 82.7614C117.426 85.5568 111.881 86.9545 105.722 86.9545C99.517 86.9545 93.9488 85.5455 89.017 82.7273C84.0852 79.9091 80.1875 75.8295 77.3238 70.4886C74.4602 65.1477 73.0284 58.6818 73.0284 51.0909C73.0284 43.4773 74.4602 37 77.3238 31.6591C80.1875 26.3182 84.0852 22.25 89.017 19.4545C93.9488 16.6364 99.517 15.2273 105.722 15.2273C111.881 15.2273 117.426 16.6364 122.358 19.4545C127.312 22.25 131.222 26.3182 134.085 31.6591C136.972 37 138.415 43.4773 138.415 51.0909ZM123.449 51.0909C123.449 46.1591 122.71 42 121.233 38.6136C119.778 35.2273 117.722 32.6591 115.062 30.9091C112.403 29.1591 109.29 28.2841 105.722 28.2841C102.153 28.2841 99.0397 29.1591 96.3807 30.9091C93.7216 32.6591 91.6534 35.2273 90.1761 38.6136C88.7216 42 87.9943 46.1591 87.9943 51.0909C87.9943 56.0227 88.7216 60.1818 90.1761 63.5682C91.6534 66.9545 93.7216 69.5227 96.3807 71.2727C99.0397 73.0227 102.153 73.8977 105.722 73.8977C109.29 73.8977 112.403 73.0227 115.062 71.2727C117.722 69.5227 119.778 66.9545 121.233 63.5682C122.71 60.1818 123.449 56.0227 123.449 51.0909Z" fill="white"/>
<path d="M210.952 40.625H196.02C195.747 38.6932 195.19 36.9773 194.349 35.4773C193.508 33.9545 192.429 32.6591 191.111 31.5909C189.793 30.5227 188.27 29.7045 186.543 29.1364C184.838 28.5682 182.986 28.2841 180.986 28.2841C177.372 28.2841 174.224 29.1818 171.543 30.9773C168.861 32.75 166.781 35.3409 165.304 38.75C163.827 42.1364 163.088 46.25 163.088 51.0909C163.088 56.0682 163.827 60.25 165.304 63.6364C166.804 67.0227 168.895 69.5795 171.577 71.3068C174.258 73.0341 177.361 73.8977 180.883 73.8977C182.861 73.8977 184.69 73.6364 186.372 73.1136C188.077 72.5909 189.588 71.8295 190.906 70.8295C192.224 69.8068 193.315 68.5682 194.179 67.1136C195.065 65.6591 195.679 64 196.02 62.1364L210.952 62.2045C210.565 65.4091 209.599 68.5 208.054 71.4773C206.531 74.4318 204.474 77.0795 201.883 79.4205C199.315 81.7386 196.247 83.5795 192.679 84.9432C189.133 86.2841 185.122 86.9545 180.645 86.9545C174.418 86.9545 168.849 85.5455 163.94 82.7273C159.054 79.9091 155.19 75.8295 152.349 70.4886C149.531 65.1477 148.122 58.6818 148.122 51.0909C148.122 43.4773 149.554 37 152.418 31.6591C155.281 26.3182 159.168 22.25 164.077 19.4545C168.986 16.6364 174.508 15.2273 180.645 15.2273C184.69 15.2273 188.44 15.7955 191.895 16.9318C195.372 18.0682 198.452 19.7273 201.133 21.9091C203.815 24.0682 205.997 26.7159 207.679 29.8523C209.383 32.9886 210.474 36.5795 210.952 40.625Z" fill="white"/>
<path d="M221.537 86V16.1818H236.298V46.9659H237.219L262.344 16.1818H280.037L254.128 47.4432L280.344 86H262.685L243.56 57.2955L236.298 66.1591V86H221.537Z" fill="white"/>
<path d="M285.065 28.3523V16.1818H342.406V28.3523H321.031V86H306.44V28.3523H285.065Z" fill="white"/>
<path d="M355.352 86H339.534L363.636 16.1818H382.659L406.727 86H390.909L373.42 32.1364H372.875L355.352 86ZM354.364 58.5568H391.727V70.0795H354.364V58.5568Z" fill="white"/>
<path d="M429.892 16.1818V86H415.131V16.1818H429.892Z" fill="white"/>
<path d="M442.037 86V16.1818H456.798V73.8295H486.73V86H442.037Z" fill="white"/>
<path d="M126 50.5C126 64.031 116.822 75 105.5 75C94.1782 75 85 64.031 85 50.5C85 36.969 94.1782 26 105.5 26C116.822 26 126 36.969 126 50.5Z" fill="white"/>
<ellipse cx="112.537" cy="25.9583" rx="16.5" ry="10" transform="rotate(15.1226 112.537 25.9583)" fill="black"/>
</svg>
